<?xml version="1.0" encoding="iso-8859-1"?>
<!-- Generator: Adobe Illustrator 19.0.0, SVG Export Plug-In . SVG Version: 6.00 Build 0)  -->
<svg version="1.1" id="Capa_1" xmlns="http://www.w3.org/2000/svg" xmlns:xlink="http://www.w3.org/1999/xlink" x="0px" y="0px"
	 viewBox="0 0 512 512" style="enable-background:new 0 0 512 512;" xml:space="preserve">
<g>
	<g>
		<path d="M415.733,271.668c-9.536,0-18.96,1.395-28.015,4.146L270.983,308.13V143.025c0-8.271,6.729-15,15-15s15,6.729,15,15
			v116.688h15c57.897,0,105-47.103,105-105c0-46.851-31.469-88.42-76.587-101.106L150.65,0v257.146l-77.741,21.52
			c-9.18,2.297-17.98,5.947-26.159,10.851C1.233,316.808-13.595,376.043,13.697,421.56c10.809,18.027,26.788,31.733,46.21,39.636
			c11.578,4.711,24.049,7.101,36.503,7.1c7.733,0,15.461-0.921,22.961-2.78l31.279-8.655v25.979L255.983,512l187.582-51.926
			l0.392-0.114c19.286-5.908,36.608-18.084,48.777-34.285c12.593-16.766,19.249-36.738,19.249-57.756
			C511.983,314.846,468.805,271.668,415.733,271.668z M150.649,341.44l-78.884,21.836l8.004,28.913l70.88-19.621v53.166
			l-38.684,10.71c-5.314,1.3-10.654,1.931-15.925,1.93c-22.859-0.001-44.391-11.854-56.614-32.241
			c-18.785-31.331-8.579-72.103,22.751-90.888c5.684-3.408,11.792-5.936,18.154-7.512l70.318-19.46V341.44z M240.983,143.025
			v333.694l-60.333-16.702V39.428l155.686,43.077c32.176,9.047,54.647,38.741,54.647,72.209c0,36.219-25.81,66.524-60,73.493
			v-85.182c0-24.813-20.187-45-45-45S240.983,118.212,240.983,143.025z M435.352,431.218l-164.369,45.501v-53.166l169.229-46.847
			l-8.004-28.913l-161.225,44.631v-53.166l124.926-34.584l0.391-0.113c6.268-1.92,12.806-2.893,19.434-2.893
			c36.53,0,66.25,29.72,66.25,66.25C481.983,397.171,463.25,422.586,435.352,431.218z"/>
	</g>
</g>
<g>
</g>
<g>
</g>
<g>
</g>
<g>
</g>
<g>
</g>
<g>
</g>
<g>
</g>
<g>
</g>
<g>
</g>
<g>
</g>
<g>
</g>
<g>
</g>
<g>
</g>
<g>
</g>
<g>
</g>
</svg>
