<svg width="194" height="194" viewBox="0 0 194 194" fill="none" xmlns="http://www.w3.org/2000/svg">
<rect width="194" height="194" fill="black"/>
<path d="M128.999 44.952V71.928H158.087C159.367 71.928 160.167 71.736 160.487 71.352C160.871 70.968 161.063 70.168 161.063 68.952V47.928C161.063 46.648 160.871 45.848 160.487 45.528C160.167 45.144 159.367 44.952 158.087 44.952H128.999ZM128.999 77.592V99H120.647V39.288H161.735C166.791 39.288 169.319 41.816 169.319 46.872V70.008C169.319 75.064 166.791 77.592 161.735 77.592H156.071L169.511 99H160.871L147.527 77.592H128.999Z" fill="white"/>
<path d="M135.36 103.288H143.616L123.264 163H111.552L96.9603 112.984L82.3683 163H70.6562L50.4003 103.288H58.8483L76.6083 157.144L92.2563 103.288H101.664L117.216 157.144L135.36 103.288Z" fill="white"/>
<path d="M67.9513 70.872V47.928C67.9513 46.648 67.7593 45.848 67.3752 45.528C66.9913 45.144 66.1913 44.952 64.9753 44.952H35.9833V73.848H64.9753C66.1913 73.848 66.9913 73.656 67.3752 73.272C67.7593 72.888 67.9513 72.088 67.9513 70.872ZM27.6313 39.288H68.6233C73.6793 39.288 76.2073 41.816 76.2073 46.872V71.928C76.2073 76.984 73.6793 79.512 68.6233 79.512H35.9833V99H27.6313V39.288Z" fill="white"/>
</svg>
